<svg width="139" height="38" viewBox="0 0 139 38" fill="none" xmlns="http://www.w3.org/2000/svg">
<g filter="url(#filter0_dd_312_5752)">
<g clip-path="url(#clip0_312_5752)">
<rect x="3" y="2" width="32" height="32" rx="8" fill="white"/>
<rect x="3" y="2" width="32" height="32" rx="8" fill="url(#paint0_linear_312_5752)"/>
<path fill-rule="evenodd" clip-rule="evenodd" d="M18.9998 4.03861C11.2892 4.03861 5.03861 10.2892 5.03861 17.9998C5.03861 25.7103 11.2892 31.9609 18.9998 31.9609C26.7103 31.9609 32.9609 25.7103 32.9609 17.9998C32.9609 10.2892 26.7103 4.03861 18.9998 4.03861ZM4.96094 17.9998C4.96094 10.2463 11.2463 3.96094 18.9998 3.96094C26.7532 3.96094 33.0386 10.2463 33.0386 17.9998C33.0386 25.7532 26.7532 32.0386 18.9998 32.0386C11.2463 32.0386 4.96094 25.7532 4.96094 17.9998Z" fill="#D0D5DD"/>
<path fill-rule="evenodd" clip-rule="evenodd" d="M19 14.0777C16.8338 14.0777 15.0777 15.8338 15.0777 18C15.0777 20.1662 16.8338 21.9223 19 21.9223C21.1662 21.9223 22.9223 20.1662 22.9223 18C22.9223 15.8338 21.1662 14.0777 19 14.0777ZM15 18C15 15.7909 16.7909 14 19 14C21.2091 14 23 15.7909 23 18C23 20.2091 21.2091 22 19 22C16.7909 22 15 20.2091 15 18Z" fill="#D0D5DD"/>
<path fill-rule="evenodd" clip-rule="evenodd" d="M18.9995 15.3199C17.5196 15.3199 16.3199 16.5196 16.3199 17.9995C16.3199 19.4794 17.5196 20.6791 18.9995 20.6791C20.4794 20.6791 21.6791 19.4794 21.6791 17.9995C21.6791 16.5196 20.4794 15.3199 18.9995 15.3199ZM16.2422 17.9995C16.2422 16.4767 17.4767 15.2422 18.9995 15.2422C20.5223 15.2422 21.7568 16.4767 21.7568 17.9995C21.7568 19.5223 20.5223 20.7568 18.9995 20.7568C17.4767 20.7568 16.2422 19.5223 16.2422 17.9995Z" fill="#D0D5DD"/>
<path d="M18.9609 2H19.0386V34H18.9609V2Z" fill="#D0D5DD"/>
<path d="M35 17.9609L35 18.0386L3 18.0386L3 17.9609L35 17.9609Z" fill="#D0D5DD"/>
<path d="M29.6016 2H29.6792V34H29.6016V2Z" fill="#D0D5DD"/>
<path d="M13.6406 2H13.7183V34H13.6406V2Z" fill="#D0D5DD"/>
<path d="M24.2812 2H24.3589V34H24.2812V2Z" fill="#D0D5DD"/>
<path d="M8.32031 2H8.39798V34H8.32031V2Z" fill="#D0D5DD"/>
<path d="M35 28.6016L35 28.6792L3 28.6792L3 28.6016L35 28.6016Z" fill="#D0D5DD"/>
<path d="M35 12.6406L35 12.7183L3 12.7183L3 12.6406L35 12.6406Z" fill="#D0D5DD"/>
<path d="M35 23.2812L35 23.3589L3 23.3589L3 23.2812L35 23.2812Z" fill="#D0D5DD"/>
<path d="M35 7.32031L35 7.39798L3 7.39798L3 7.32031L35 7.32031Z" fill="#D0D5DD"/>
<g filter="url(#filter1_b_312_5752)">
<path d="M3 18H35V21.2C35 25.6804 35 27.9206 34.1281 29.6319C33.3611 31.1372 32.1372 32.3611 30.6319 33.1281C28.9206 34 26.6804 34 22.2 34H15.8C11.3196 34 9.07937 34 7.36808 33.1281C5.86278 32.3611 4.63893 31.1372 3.87195 29.6319C3 27.9206 3 25.6804 3 21.2V18Z" fill="white" fill-opacity="0.2"/>
</g>
</g>
<rect x="3.15" y="2.15" width="31.7" height="31.7" rx="7.85" stroke="#D0D5DD" stroke-width="0.3"/>
</g>
<path d="M30.308 20.808C30.5573 20.808 30.682 21.1453 30.682 21.82C30.682 22.1867 30.528 22.634 30.22 23.162C29.912 23.6753 29.5087 24.152 29.01 24.592C28.526 25.0173 27.9833 25.3693 27.382 25.648C26.7807 25.9267 26.1427 26.066 25.468 26.066C24.808 26.066 24.2873 25.8533 23.906 25.428C23.5393 24.988 23.356 24.504 23.356 23.976C23.356 23.4333 23.444 22.8247 23.62 22.15C23.796 21.4753 23.9867 20.7713 24.192 20.038C24.7493 18.0873 25.0353 16.716 25.05 15.924C25.05 15.5867 25.006 15.33 24.918 15.154C24.83 14.9633 24.6613 14.868 24.412 14.868C23.972 14.868 23.5027 15.132 23.004 15.66C22.5053 16.188 22.036 16.8627 21.596 17.684C20.584 19.5613 20.0487 21.3947 19.99 23.184C20.0193 23.3893 20.0487 23.5947 20.078 23.8C20.1073 24.0053 20.122 24.2253 20.122 24.46C20.122 24.9293 19.8873 25.362 19.418 25.758C18.9633 26.1393 18.45 26.33 17.878 26.33C17.5407 26.33 17.2913 26.1687 17.13 25.846C16.9687 25.5087 16.888 25.098 16.888 24.614C16.888 24.13 16.998 23.47 17.218 22.634C17.438 21.798 17.68 20.9107 17.944 19.972C18.648 17.4933 19.0073 15.6453 19.022 14.428C19.022 13.812 18.9413 13.328 18.78 12.976C18.6333 12.624 18.34 12.448 17.9 12.448C17.108 12.448 16.3233 13.0127 15.546 14.142C14.7687 15.2713 14.072 17.024 13.456 19.4C13.2947 20.016 13.17 20.5513 13.082 21.006L13.06 21.424C13.3387 22.7733 13.478 23.6533 13.478 24.064C13.478 24.9147 13.1773 25.4867 12.576 25.78C12.2973 25.912 12.026 26.0367 11.762 26.154C11.5127 26.2713 11.2413 26.33 10.948 26.33C10.2147 26.33 9.848 25.6333 9.848 24.24C9.848 22.832 10.2367 20.0893 11.014 16.012C11.2927 14.5453 11.432 13.724 11.432 13.548C11.432 12.36 11.1313 11.766 10.53 11.766C10.3247 11.766 10.134 11.8247 9.958 11.942C9.79667 12.0593 9.628 12.184 9.452 12.316C9.29067 12.448 9.122 12.5727 8.946 12.69C8.77 12.8073 8.56467 12.866 8.33 12.866C8.11 12.866 8 12.668 8 12.272C8 11.4653 8.374 10.8053 9.122 10.292C9.84067 9.764 10.7133 9.5 11.74 9.5C13.06 9.5 13.8373 10.116 14.072 11.348C14.1307 11.7147 14.1747 12.1033 14.204 12.514C15.2893 10.4753 16.6607 9.456 18.318 9.456C20.122 9.456 21.156 10.3213 21.42 12.052C21.508 12.5507 21.5447 13.086 21.53 13.658V13.834C22.4833 12.514 23.6127 11.854 24.918 11.854C26.766 11.854 27.69 12.9687 27.69 15.198C27.69 16.166 27.536 17.3027 27.228 18.608C26.9347 19.8987 26.7147 20.83 26.568 21.402C26.436 21.9593 26.37 22.392 26.37 22.7C26.37 23.2573 26.5607 23.536 26.942 23.536C27.338 23.536 28.2693 22.7733 29.736 21.248C30 20.9547 30.1907 20.808 30.308 20.808Z" fill="#276CF0"/>
<path d="M47.729 10.4545H51.5217L55.5273 20.2273H55.6978L59.7035 10.4545H63.4961V25H60.5131V15.5327H60.3924L56.6282 24.929H54.5969L50.8327 15.4972H50.712V25H47.729V10.4545ZM69.0838 25.206C68.3878 25.206 67.7675 25.0852 67.223 24.8438C66.6785 24.5975 66.2476 24.2353 65.9304 23.7571C65.6179 23.2741 65.4616 22.6728 65.4616 21.9531C65.4616 21.3471 65.5729 20.8381 65.7955 20.4261C66.018 20.0142 66.321 19.6828 66.7045 19.4318C67.0881 19.1809 67.5237 18.9915 68.0114 18.8636C68.5038 18.7358 69.0199 18.6458 69.5597 18.5938C70.1941 18.5275 70.7055 18.4659 71.0938 18.4091C71.482 18.3475 71.7637 18.2576 71.9389 18.1392C72.1141 18.0208 72.2017 17.8456 72.2017 17.6136V17.571C72.2017 17.1212 72.0597 16.7732 71.7756 16.527C71.4962 16.2808 71.0985 16.1577 70.5824 16.1577C70.0379 16.1577 69.6046 16.2784 69.2827 16.5199C68.9607 16.7566 68.7476 17.0549 68.6435 17.4148L65.8452 17.1875C65.9872 16.5246 66.2666 15.9517 66.6832 15.4688C67.0999 14.9811 67.6373 14.607 68.2955 14.3466C68.9583 14.0814 69.7254 13.9489 70.5966 13.9489C71.2027 13.9489 71.7827 14.0199 72.3366 14.1619C72.8954 14.304 73.3902 14.5241 73.821 14.8224C74.2566 15.1207 74.5999 15.5043 74.8509 15.973C75.1018 16.437 75.2273 16.9934 75.2273 17.642V25H72.358V23.4872H72.2727C72.0975 23.8281 71.8632 24.1288 71.5696 24.3892C71.276 24.6449 70.9233 24.8461 70.5114 24.9929C70.0994 25.1349 69.6236 25.206 69.0838 25.206ZM69.9503 23.1179C70.3954 23.1179 70.7884 23.0303 71.1293 22.8551C71.4702 22.6752 71.7377 22.4337 71.9318 22.1307C72.1259 21.8277 72.223 21.4844 72.223 21.1009V19.9432C72.1283 20.0047 71.9981 20.0616 71.8324 20.1136C71.6714 20.161 71.4891 20.206 71.2855 20.2486C71.0819 20.2865 70.8783 20.322 70.6747 20.3551C70.4711 20.3835 70.2865 20.4096 70.1207 20.4332C69.7656 20.4853 69.4555 20.5682 69.1903 20.6818C68.9252 20.7955 68.7192 20.9493 68.5724 21.1435C68.4257 21.3329 68.3523 21.5696 68.3523 21.8537C68.3523 22.2656 68.5014 22.5805 68.7997 22.7983C69.1027 23.0114 69.4863 23.1179 69.9503 23.1179ZM79.0518 29.0909C78.6683 29.0909 78.3085 29.0601 77.9723 28.9986C77.6409 28.9418 77.3662 28.8684 77.1484 28.7784L77.8303 26.5199C78.1854 26.6288 78.505 26.688 78.7891 26.6974C79.0779 26.7069 79.3265 26.6406 79.5348 26.4986C79.7479 26.3565 79.9207 26.1151 80.0533 25.7741L80.2308 25.3125L76.3175 14.0909H79.4993L81.7578 22.1023H81.8714L84.1513 14.0909H87.3544L83.1143 26.179C82.9107 26.7661 82.6338 27.2775 82.2834 27.7131C81.9377 28.1534 81.4998 28.492 80.9695 28.7287C80.4392 28.9702 79.8 29.0909 79.0518 29.0909ZM91.7205 25.206C91.0245 25.206 90.4042 25.0852 89.8597 24.8438C89.3152 24.5975 88.8844 24.2353 88.5671 23.7571C88.2546 23.2741 88.0984 22.6728 88.0984 21.9531C88.0984 21.3471 88.2096 20.8381 88.4322 20.4261C88.6547 20.0142 88.9577 19.6828 89.3413 19.4318C89.7248 19.1809 90.1604 18.9915 90.6481 18.8636C91.1405 18.7358 91.6566 18.6458 92.1964 18.5938C92.8308 18.5275 93.3422 18.4659 93.7305 18.4091C94.1187 18.3475 94.4005 18.2576 94.5756 18.1392C94.7508 18.0208 94.8384 17.8456 94.8384 17.6136V17.571C94.8384 17.1212 94.6964 16.7732 94.4123 16.527C94.1329 16.2808 93.7352 16.1577 93.2191 16.1577C92.6746 16.1577 92.2414 16.2784 91.9194 16.5199C91.5974 16.7566 91.3844 17.0549 91.2802 17.4148L88.4819 17.1875C88.6239 16.5246 88.9033 15.9517 89.32 15.4688C89.7366 14.9811 90.274 14.607 90.9322 14.3466C91.5951 14.0814 92.3621 13.9489 93.2333 13.9489C93.8394 13.9489 94.4194 14.0199 94.9734 14.1619C95.5321 14.304 96.0269 14.5241 96.4577 14.8224C96.8933 15.1207 97.2366 15.5043 97.4876 15.973C97.7385 16.437 97.864 16.9934 97.864 17.642V25H94.9947V23.4872H94.9094C94.7343 23.8281 94.4999 24.1288 94.2063 24.3892C93.9128 24.6449 93.56 24.8461 93.1481 24.9929C92.7362 25.1349 92.2603 25.206 91.7205 25.206ZM92.587 23.1179C93.0321 23.1179 93.4251 23.0303 93.766 22.8551C94.1069 22.6752 94.3744 22.4337 94.5685 22.1307C94.7627 21.8277 94.8597 21.4844 94.8597 21.1009V19.9432C94.765 20.0047 94.6348 20.0616 94.4691 20.1136C94.3081 20.161 94.1258 20.206 93.9222 20.2486C93.7186 20.2865 93.515 20.322 93.3114 20.3551C93.1078 20.3835 92.9232 20.4096 92.7575 20.4332C92.4023 20.4853 92.0922 20.5682 91.8271 20.6818C91.5619 20.7955 91.3559 20.9493 91.2092 21.1435C91.0624 21.3329 90.989 21.5696 90.989 21.8537C90.989 22.2656 91.1381 22.5805 91.4364 22.7983C91.7395 23.0114 92.123 23.1179 92.587 23.1179ZM113.635 17.7273C113.635 19.3134 113.334 20.6629 112.733 21.7756C112.136 22.8883 111.322 23.7382 110.289 24.3253C109.262 24.9077 108.107 25.1989 106.824 25.1989C105.531 25.1989 104.371 24.9053 103.343 24.3182C102.316 23.7311 101.504 22.8812 100.907 21.7685C100.311 20.6558 100.012 19.3087 100.012 17.7273C100.012 16.1411 100.311 14.7917 100.907 13.679C101.504 12.5663 102.316 11.7187 103.343 11.1364C104.371 10.5492 105.531 10.2557 106.824 10.2557C108.107 10.2557 109.262 10.5492 110.289 11.1364C111.322 11.7187 112.136 12.5663 112.733 13.679C113.334 14.7917 113.635 16.1411 113.635 17.7273ZM110.517 17.7273C110.517 16.6998 110.363 15.8333 110.055 15.1278C109.752 14.4223 109.324 13.8873 108.77 13.5227C108.216 13.1581 107.567 12.9759 106.824 12.9759C106.08 12.9759 105.431 13.1581 104.877 13.5227C104.324 13.8873 103.893 14.4223 103.585 15.1278C103.282 15.8333 103.13 16.6998 103.13 17.7273C103.13 18.7547 103.282 19.6212 103.585 20.3267C103.893 21.0322 104.324 21.5672 104.877 21.9318C105.431 22.2964 106.08 22.4787 106.824 22.4787C107.567 22.4787 108.216 22.2964 108.77 21.9318C109.324 21.5672 109.752 21.0322 110.055 20.3267C110.363 19.6212 110.517 18.7547 110.517 17.7273ZM115.856 29.0909V14.0909H118.839V15.9233H118.974C119.106 15.6297 119.298 15.3314 119.549 15.0284C119.805 14.7206 120.136 14.465 120.543 14.2614C120.955 14.053 121.467 13.9489 122.077 13.9489C122.873 13.9489 123.607 14.1572 124.279 14.5739C124.951 14.9858 125.489 15.6084 125.891 16.4418C126.294 17.2704 126.495 18.3097 126.495 19.5597C126.495 20.7765 126.299 21.804 125.906 22.642C125.517 23.4754 124.987 24.1075 124.315 24.5384C123.647 24.9645 122.899 25.1776 122.07 25.1776C121.483 25.1776 120.984 25.0805 120.572 24.8864C120.165 24.6922 119.831 24.4484 119.57 24.1548C119.31 23.8565 119.111 23.5559 118.974 23.2528H118.881V29.0909H115.856ZM118.817 19.5455C118.817 20.1941 118.907 20.7599 119.087 21.2429C119.267 21.7259 119.528 22.1023 119.869 22.3722C120.21 22.6373 120.624 22.7699 121.112 22.7699C121.604 22.7699 122.021 22.6349 122.362 22.3651C122.702 22.0904 122.96 21.7116 123.136 21.2287C123.316 20.741 123.406 20.1799 123.406 19.5455C123.406 18.9157 123.318 18.3617 123.143 17.8835C122.968 17.4053 122.71 17.0312 122.369 16.7614C122.028 16.4915 121.609 16.3565 121.112 16.3565C120.619 16.3565 120.202 16.4867 119.862 16.7472C119.525 17.0076 119.267 17.3769 119.087 17.8551C118.907 18.3333 118.817 18.8968 118.817 19.5455ZM137.589 17.2017L134.819 17.3722C134.772 17.1354 134.67 16.9223 134.513 16.733C134.357 16.5388 134.151 16.3849 133.896 16.2713C133.645 16.1529 133.344 16.0938 132.994 16.0938C132.525 16.0938 132.129 16.1932 131.808 16.392C131.486 16.5862 131.325 16.8466 131.325 17.1733C131.325 17.4337 131.429 17.6539 131.637 17.8338C131.845 18.0137 132.203 18.1581 132.71 18.267L134.684 18.6648C135.745 18.8826 136.535 19.233 137.056 19.7159C137.577 20.1989 137.837 20.8333 137.837 21.6193C137.837 22.3343 137.627 22.9616 137.205 23.5014C136.789 24.0412 136.216 24.4626 135.487 24.7656C134.762 25.0639 133.926 25.2131 132.979 25.2131C131.535 25.2131 130.385 24.9124 129.528 24.3111C128.675 23.705 128.176 22.8812 128.029 21.8395L131.005 21.6832C131.095 22.1236 131.313 22.4598 131.658 22.6918C132.004 22.919 132.447 23.0327 132.987 23.0327C133.517 23.0327 133.943 22.9309 134.265 22.7273C134.592 22.5189 134.757 22.2514 134.762 21.9247C134.757 21.6501 134.641 21.4252 134.414 21.25C134.187 21.0701 133.836 20.9328 133.363 20.8381L131.474 20.4616C130.408 20.2486 129.615 19.8793 129.094 19.3537C128.578 18.8281 128.32 18.1581 128.32 17.3438C128.32 16.643 128.51 16.0393 128.888 15.5327C129.272 15.026 129.809 14.6354 130.501 14.3608C131.197 14.0862 132.011 13.9489 132.944 13.9489C134.322 13.9489 135.406 14.2401 136.197 14.8224C136.992 15.4048 137.456 16.1979 137.589 17.2017Z" fill="white"/>
<defs>
<filter id="filter0_dd_312_5752" x="0" y="0" width="38" height="38" filterUnits="userSpaceOnUse" color-interpolation-filters="sRGB">
<feFlood flood-opacity="0" result="BackgroundImageFix"/>
<feColorMatrix in="SourceAlpha" type="matrix" values="0 0 0 0 0 0 0 0 0 0 0 0 0 0 0 0 0 0 127 0" result="hardAlpha"/>
<feOffset dy="1"/>
<feGaussianBlur stdDeviation="1"/>
<feColorMatrix type="matrix" values="0 0 0 0 0.0627451 0 0 0 0 0.0941176 0 0 0 0 0.156863 0 0 0 0.06 0"/>
<feBlend mode="normal" in2="BackgroundImageFix" result="effect1_dropShadow_312_5752"/>
<feColorMatrix in="SourceAlpha" type="matrix" values="0 0 0 0 0 0 0 0 0 0 0 0 0 0 0 0 0 0 127 0" result="hardAlpha"/>
<feOffset dy="1"/>
<feGaussianBlur stdDeviation="1.5"/>
<feColorMatrix type="matrix" values="0 0 0 0 0.0627451 0 0 0 0 0.0941176 0 0 0 0 0.156863 0 0 0 0.1 0"/>
<feBlend mode="normal" in2="effect1_dropShadow_312_5752" result="effect2_dropShadow_312_5752"/>
<feBlend mode="normal" in="SourceGraphic" in2="effect2_dropShadow_312_5752" result="shape"/>
</filter>
<filter id="filter1_b_312_5752" x="-2" y="13" width="42" height="26" filterUnits="userSpaceOnUse" color-interpolation-filters="sRGB">
<feFlood flood-opacity="0" result="BackgroundImageFix"/>
<feGaussianBlur in="BackgroundImageFix" stdDeviation="2.5"/>
<feComposite in2="SourceAlpha" operator="in" result="effect1_backgroundBlur_312_5752"/>
<feBlend mode="normal" in="SourceGraphic" in2="effect1_backgroundBlur_312_5752" result="shape"/>
</filter>
<linearGradient id="paint0_linear_312_5752" x1="19" y1="2" x2="19" y2="34" gradientUnits="userSpaceOnUse">
<stop stop-color="white"/>
<stop offset="1" stop-color="#D0D5DD"/>
</linearGradient>
<clipPath id="clip0_312_5752">
<rect x="3" y="2" width="32" height="32" rx="8" fill="white"/>
</clipPath>
</defs>
</svg>
